<?xml version="1.0" encoding="utf-8"?>
<!-- Generator: Adobe Illustrator 19.2.1, SVG Export Plug-In . SVG Version: 6.00 Build 0)  -->
<svg version="1.1" id="Layer_1" xmlns="http://www.w3.org/2000/svg" xmlns:xlink="http://www.w3.org/1999/xlink" x="0px" y="0px"
	 viewBox="0 0 360 190" style="enable-background:new 0 0 360 190;" xml:space="preserve">
<style type="text/css">
	.st0{fill:#FFFFFF;}
</style>
<g>
	<polygon class="st0" points="158.4,14.9 156.6,24.7 144.7,24.7 138.8,58.2 127.6,58.2 133.5,24.7 121.9,24.7 123.6,14.9 	"/>
	<polygon class="st0" points="198.2,14.9 190.6,58.2 179.3,58.2 182.3,41.4 168.5,41.4 165.6,58.2 154.4,58.2 162,14.9 173.2,14.9 
		170.3,31.6 184,31.6 186.9,14.9 	"/>
	<polygon class="st0" points="204.5,14.9 232.8,14.9 231.1,24.7 214,24.7 212.8,31.3 227.5,31.3 225.8,40.9 211.1,40.9 209.8,48.4 
		227.4,48.4 225.7,58.2 196.9,58.2 	"/>
	<polygon class="st0" points="6,122.2 16,65.6 30.6,65.6 20.7,122.2 	"/>
	<polygon class="st0" points="80.1,65.6 95.3,65.6 88.2,122.2 74.4,122.2 78,92.7 77.7,92.7 64.4,116.5 54.1,116.5 49.1,93.1 
		48.9,93.1 42.1,122.2 28.2,122.2 41.5,65.6 56.6,65.6 62.4,97.4 62.8,97.4 	"/>
	<path class="st0" d="M110.1,122.2H95.5l10-56.5h20.6c11.8,0,18.8,5.3,18.8,15.3c0,14.5-10.7,22.5-27,22.5h-4.5L110.1,122.2z
		 M118.8,92.1c6.1,0,10.7-2.1,10.7-9.4c0-4.8-3.2-5.5-8-5.5h-3.4l-2.6,15H118.8z"/>
	<polygon class="st0" points="152.9,65.6 190,65.6 187.7,78.4 165.3,78.4 163.8,87.1 183,87.1 180.8,99.6 161.6,99.6 159.8,109.4 
		182.8,109.4 180.6,122.2 142.9,122.2 	"/>
	<path class="st0" d="M201.2,122.2h-14.7l10-56.5h20.3c12,0,19.3,4.2,19.3,13.9c0,8.9-5.5,14.3-12,16.6c1.9,0.9,2.6,2.5,3.5,5.4
		l5.6,20.7h-15.8l-4.4-18.4c-0.6-2.2-1.8-3.1-4-3.1H205L201.2,122.2z M212.4,90.4c5.1,0,8.4-3.2,8.4-8.6c0-3.7-2.6-4.8-7.2-4.8h-4.3
		l-2.4,13.3H212.4z"/>
	<polygon class="st0" points="237.3,122.2 247.3,65.6 262,65.6 252,122.2 	"/>
	<path class="st0" d="M256.1,122.2l28.3-56.5h17l9.3,56.5h-14.6l-1.7-12.1h-17l-6,12.1H256.1z M281.5,99.4h11.9l-2.1-20.1h-0.5
		L281.5,99.4z"/>
	<polygon class="st0" points="324.5,65.6 339.1,65.6 331.4,109.3 354,109.3 351.7,122.2 314.5,122.2 	"/>
	<polygon class="st0" points="50.4,128.9 48.7,138.7 36.7,138.7 30.8,172.2 19.7,172.2 25.5,138.7 14,138.7 15.7,128.9 	"/>
	<path class="st0" d="M64.9,128.9l-5,28.3c-0.1,0.7-0.2,1.2-0.2,1.8c0,2.7,1.4,4.6,5.3,4.6c3.9,0,6.2-1.9,6.9-6l5.1-28.7h11.1
		l-5.3,29.9c-1.7,9.4-7.8,14.2-18.7,14.2c-10.7,0-15.7-4-15.7-11.7c0-1.2,0.1-2.5,0.4-3.8l5-28.6H64.9z"/>
	<polygon class="st0" points="132.3,128.9 114.7,149.7 125.7,172.2 113.1,172.2 106.8,158.2 95.7,172.2 82.3,172.2 101.5,149.2 
		91.7,128.9 104.2,128.9 109.5,141.5 119.5,128.9 	"/>
	<polygon class="st0" points="147.4,128.9 175.7,128.9 174,138.7 156.9,138.7 155.7,145.3 170.4,145.3 168.7,154.9 154,154.9 
		152.7,162.4 170.3,162.4 168.6,172.2 139.8,172.2 	"/>
	<polygon class="st0" points="212,128.9 223.6,128.9 218.2,172.2 207.7,172.2 210.4,149.6 210.1,149.6 200,167.8 192.1,167.8 
		188.3,149.9 188.1,149.9 182.9,172.2 172.3,172.2 182.4,128.9 194,128.9 198.5,153.2 198.7,153.2 	"/>
	<path class="st0" d="M235,172.2h-11.2l7.6-43.2h15.8c9.1,0,14.4,4,14.4,11.7c0,11.1-8.2,17.2-20.7,17.2h-3.5L235,172.2z
		 M241.6,149.1c4.7,0,8.2-1.6,8.2-7.2c0-3.7-2.5-4.2-6.1-4.2h-2.6l-2,11.4H241.6z"/>
	<polygon class="st0" points="260.3,172.2 267.9,128.9 279.1,128.9 271.5,172.2 	"/>
	<path class="st0" d="M289.3,172.2h-11.2l7.6-43.2h15.5c9.2,0,14.8,3.2,14.8,10.6c0,6.8-4.2,10.9-9.2,12.7c1.4,0.7,2,1.9,2.7,4.1
		l4.3,15.9h-12.1l-3.4-14c-0.5-1.7-1.4-2.4-3.1-2.4h-3.1L289.3,172.2z M297.8,147.8c3.9,0,6.5-2.5,6.5-6.6c0-2.9-2-3.6-5.5-3.6h-3.3
		l-1.8,10.2H297.8z"/>
	<polygon class="st0" points="324.3,128.9 352.6,128.9 350.9,138.7 333.8,138.7 332.6,145.3 347.3,145.3 345.6,154.9 330.9,154.9 
		329.6,162.4 347.2,162.4 345.5,172.2 316.7,172.2 	"/>
</g>
</svg>
