<?xml version="1.0" encoding="utf-8"?>
<!-- Generator: Adobe Illustrator 19.2.1, SVG Export Plug-In . SVG Version: 6.00 Build 0)  -->
<svg version="1.1" id="Layer_1" xmlns="http://www.w3.org/2000/svg" xmlns:xlink="http://www.w3.org/1999/xlink" x="0px" y="0px"
	 viewBox="0 0 30 30" style="enable-background:new 0 0 30 30;" xml:space="preserve">
<style type="text/css">
	.st0{fill:#EBC000;}
	.st1{fill:#4EA1BE;}
</style>
<g>
	<circle class="st0" cx="13.1" cy="12.7" r="8.7"/>
	<path class="st1" d="M21.8,12.7h-1.5c0,2-0.8,3.8-2.1,5.1c-1.3,1.3-3.1,2.1-5.1,2.1c-2,0-3.8-0.8-5.1-2.1c-1.3-1.3-2.1-3.1-2.1-5.1
		c0-2,0.8-3.8,2.1-5.1c1.3-1.3,3.1-2.1,5.1-2.1c2,0,3.8,0.8,5.1,2.1c1.3,1.3,2.1,3.1,2.1,5.1L21.8,12.7h1.5
		c0-5.6-4.6-10.2-10.2-10.2C7.5,2.5,2.9,7,2.9,12.7c0,5.6,4.6,10.2,10.2,10.2c5.6,0,10.2-4.6,10.2-10.2H21.8z"/>
	<path class="st1" d="M13.1,21.8c-5,0-9.1-4.1-9.1-9.1c0-5,4.1-9.1,9.1-9.1c5,0,9.1,4.1,9.1,9.1C22.3,17.7,18.2,21.8,13.1,21.8z
		 M13.1,4.4c-4.6,0-8.3,3.7-8.3,8.3c0,4.6,3.7,8.3,8.3,8.3c4.6,0,8.3-3.7,8.3-8.3C21.4,8.1,17.7,4.4,13.1,4.4z"/>
	<path class="st1" d="M13.1,21.8v-1.5c-2.1,0-4-0.9-5.4-2.2c-1.4-1.4-2.2-3.3-2.2-5.4c0-2.1,0.9-4,2.2-5.4C9.1,5.9,11,5,13.1,5
		c2.1,0,4,0.9,5.4,2.2c1.4,1.4,2.2,3.3,2.2,5.4c0,2.1-0.9,4-2.2,5.4c-1.4,1.4-3.3,2.2-5.4,2.2V21.8v1.5c5.9,0,10.6-4.8,10.6-10.6
		C23.8,6.8,19,2,13.1,2C7.3,2,2.5,6.8,2.5,12.7c0,5.9,4.8,10.6,10.6,10.6V21.8z M13.1,4.4V2.9c-5.4,0-9.8,4.4-9.8,9.8
		c0,5.4,4.4,9.8,9.8,9.8c5.4,0,9.8-4.4,9.8-9.8c0-5.4-4.4-9.8-9.8-9.8V4.4v1.5c1.9,0,3.6,0.8,4.8,2c1.2,1.2,2,2.9,2,4.8
		c0,1.9-0.8,3.6-2,4.8c-1.2,1.2-2.9,2-4.8,2c-1.9,0-3.6-0.8-4.8-2c-1.2-1.2-2-2.9-2-4.8c0-1.9,0.8-3.6,2-4.8c1.2-1.2,2.9-2,4.8-2
		L13.1,4.4z"/>
	<rect x="22" y="17.2" transform="matrix(0.7071 -0.7071 0.7071 0.7071 -9.5909 22.8303)" class="st1" width="1.5" height="11.6"/>
	<polygon class="st1" points="26.3,27.6 27.4,26.6 20.3,19.4 20.3,19.4 19.2,18.4 18.1,19.4 25.3,26.6 25.3,26.6 26.3,27.6 
		27.4,26.6 26.3,27.6 27.4,28.7 29.5,26.6 19.2,16.2 16,19.4 26.3,29.7 27.4,28.7 	"/>
</g>
</svg>
